<svg xmlns="http://www.w3.org/2000/svg" fill="none" viewBox="0 0 135 32" height="32" width="135">
<path fill="url(#paint0_linear_127_26796)" d="M59.9651 19.2527C60.8802 18.8469 61.6704 18.2042 62.2542 17.3909C62.7949 16.5445 63.0648 15.5535 63.028 14.5498C63.0564 13.638 62.8788 12.7316 62.5083 11.8981C62.1804 11.2046 61.6742 10.6107 61.0415 10.1772C60.3515 9.72365 59.5793 9.40975 58.7686 9.25326C57.8027 9.05572 56.8186 8.96049 55.8327 8.96915H45.2258V31.5088H56.1492C57.1454 31.5101 58.1376 31.3828 59.1012 31.13C60.0166 30.8966 60.8827 30.5007 61.6582 29.9612C62.406 29.4343 63.0173 28.7367 63.4414 27.9262C63.933 26.8881 64.1572 25.7436 64.0939 24.5967C64.0306 23.4498 63.6816 22.337 63.0788 21.3593C62.3951 20.3599 61.3587 19.66 59.9697 19.2596L59.9651 19.2527ZM50.1851 12.8128H54.8256C55.2546 12.8117 55.6829 12.8488 56.1053 12.9236C56.4891 12.9876 56.8579 13.1214 57.1933 13.3186C57.5113 13.5102 57.7728 13.7828 57.9509 14.1086C58.1547 14.5084 58.2526 14.9537 58.235 15.4021C58.235 16.3492 57.9509 17.0329 57.3827 17.4533C56.7446 17.895 55.9798 18.1164 55.2045 18.0839H50.1851V12.8128ZM58.8517 26.1338C58.6644 26.4973 58.3878 26.8073 58.0479 27.0346C57.6928 27.2637 57.2979 27.4243 56.8837 27.5081C56.4281 27.6046 55.9635 27.6526 55.4978 27.6514H50.1851V21.4632H55.5833C56.6612 21.4632 57.5243 21.7104 58.1726 22.2047C58.8209 22.699 59.1474 23.5252 59.152 24.6832C59.1714 25.1847 59.0683 25.6833 58.8517 26.1361V26.1338ZM80.8371 27.8708V19.3797C80.8371 18.3911 80.6161 17.5965 80.1741 16.9959C79.7306 16.3942 79.1449 15.9117 78.4694 15.5915C77.7404 15.244 76.9607 15.0148 76.1596 14.9124C75.3329 14.7979 74.4994 14.74 73.6649 14.7392C72.7613 14.7404 71.86 14.8301 70.9739 15.0071C70.1244 15.1685 69.3083 15.4723 68.5601 15.9057C67.8508 16.3205 67.2463 16.8926 66.7931 17.578C66.3023 18.3657 66.0296 19.2697 66.0031 20.1974H70.4865C70.5697 19.3135 70.8646 18.6821 71.3712 18.3033C71.8771 17.9245 72.57 17.7351 73.4501 17.7351C73.8249 17.7341 74.1993 17.7603 74.5704 17.8136C74.8964 17.8565 75.2105 17.9641 75.4943 18.1301C75.7604 18.2903 75.9782 18.5193 76.1249 18.793C76.2972 19.1526 76.3766 19.5497 76.3559 19.9479C76.3789 20.1444 76.3534 20.3436 76.2817 20.528C76.2101 20.7124 76.0944 20.8764 75.9447 21.0059C75.5903 21.2753 75.1811 21.4638 74.7459 21.5579C74.1748 21.6959 73.5942 21.7909 73.0089 21.842C72.3552 21.9044 71.6923 21.9899 71.0201 22.0938C70.3448 22.1999 69.6755 22.3418 69.0151 22.5188C68.3846 22.6842 67.787 22.956 67.2481 23.3227C66.7198 23.6956 66.2869 24.1878 65.9846 24.7594C65.6337 25.4699 65.4654 26.2566 65.4949 27.0485C65.4751 27.7972 65.621 28.541 65.9222 29.2267C66.1918 29.8178 66.597 30.3369 67.1049 30.742C67.6293 31.1513 68.23 31.452 68.8719 31.6266C69.5816 31.8207 70.3145 31.9163 71.0501 31.9107C72.0559 31.9109 73.0561 31.7622 74.0183 31.4696C74.979 31.1796 75.8487 30.6465 76.543 29.922C76.5631 30.192 76.6001 30.4604 76.6539 30.7258C76.7061 30.9878 76.7748 31.2462 76.8595 31.4996H81.4053C81.154 31.0308 81.0038 30.5147 80.9641 29.9843C80.8773 29.2824 80.8348 28.5757 80.8371 27.8685V27.8708ZM76.3559 25.1867C76.3488 25.5244 76.3226 25.8614 76.2774 26.1961C76.2182 26.6356 76.0738 27.0593 75.8524 27.4435C75.592 27.8832 75.2219 28.2477 74.7783 28.5014C74.2932 28.797 73.6095 28.9426 72.7271 28.9426C72.3777 28.9429 72.029 28.9112 71.6854 28.8479C71.372 28.7943 71.0717 28.6814 70.8007 28.5152C70.5472 28.356 70.3401 28.133 70.2001 27.8685C70.04 27.5566 69.9605 27.2096 69.9691 26.8591C69.9588 26.4981 70.0381 26.1401 70.2001 25.8173C70.3425 25.5507 70.542 25.3188 70.7845 25.1382C71.0441 24.9513 71.3318 24.807 71.6368 24.7109C71.9624 24.6064 72.2941 24.5223 72.6301 24.4591C72.9881 24.3968 73.3462 24.3436 73.7042 24.302C74.0622 24.2605 74.3971 24.2073 74.7298 24.145C75.0425 24.0886 75.3512 24.0115 75.6537 23.914C75.9151 23.8316 76.157 23.6973 76.3651 23.519V25.1913L76.3559 25.1867ZM98.4475 18.7006C98.6341 19.6126 98.7239 20.5417 98.7154 21.4725V31.5111H94.225V22.2832C94.225 20.9373 94.0148 19.9364 93.5944 19.2804C93.174 18.6244 92.4272 18.2933 91.3539 18.2872C90.1343 18.2872 89.2504 18.6498 88.7021 19.3751C88.1539 20.1004 87.8806 21.2946 87.8821 22.9577V31.5042H83.3987V15.1804H87.6604V17.4602H87.7551C88.268 16.565 89.0382 15.8447 89.9656 15.3929C90.8292 14.9715 91.7766 14.7505 92.7375 14.7461C93.7437 14.7105 94.747 14.8746 95.6895 15.2289C96.4032 15.5148 97.0293 15.9831 97.505 16.5871C97.966 17.2152 98.2816 17.9379 98.429 18.7029L98.4475 18.7006ZM118.262 31.4996H111.745L106.084 25.4524L105.53 26.0067V31.4996H101.041V8.95991H105.525V21.1052L111.434 15.1781H116.333L109.131 22.3918L118.252 31.4973L118.262 31.4996ZM11.6404 19.3081H21.261V31.4927H18.0549L17.5421 28.9356C16.7693 29.9731 15.7423 30.7941 14.56 31.3194C13.515 31.7629 12.3921 31.9938 11.2569 31.9985C9.63512 32.0241 8.02523 31.7175 6.52632 31.0977C5.18054 30.5363 3.97188 29.6908 2.98299 28.6192C2.0053 27.5426 1.25291 26.2813 0.770136 24.9095C0.248287 23.4353 -0.0120212 21.8813 0.000950208 20.3175C-0.0101406 18.723 0.249961 17.1382 0.770136 15.6308C1.25373 14.2407 2.00557 12.9592 2.98299 11.8588C3.9682 10.7722 5.17808 9.9131 6.52863 9.34104C8.02456 8.70896 9.63542 8.39434 11.2592 8.41709C12.4179 8.41445 13.5701 8.58973 14.6755 8.93681C15.751 9.26999 16.7602 9.78824 17.6576 10.4683C18.5482 11.1457 19.2949 11.9938 19.8543 12.9629C20.4502 14.0091 20.8112 15.1725 20.9122 16.3723H16.0984C15.7904 15.108 15.213 14.161 14.366 13.5311C13.4602 12.8841 12.3674 12.5514 11.2546 12.5841C10.2532 12.5544 9.26036 12.7768 8.36729 13.2309C7.59446 13.6451 6.93408 14.2413 6.44317 14.9679C5.93864 15.727 5.57626 16.5715 5.3737 17.4602C5.14744 18.4012 5.03422 19.3659 5.03646 20.3337C5.03139 21.2682 5.14471 22.1995 5.3737 23.1055C5.58394 23.9688 5.94776 24.7872 6.44779 25.5217C6.94322 26.2401 7.60284 26.83 8.37191 27.2425C9.26451 27.6979 10.2577 27.9203 11.2592 27.8893C12.927 27.8893 14.2151 27.4735 15.1237 26.6419C16.0322 25.8104 16.5596 24.5977 16.7059 23.0039H11.6381V19.3081H11.6404ZM40.9757 11.1959C40.2841 10.4864 39.4473 9.93478 38.5226 9.57895C37.355 9.13917 36.1133 8.92973 34.8661 8.96222H24.5456V31.5019H29.5811V23.4174H34.873C36.1202 23.4499 37.362 23.2404 38.5295 22.8006C39.4547 22.4457 40.2917 21.894 40.9826 21.1837C41.6085 20.5248 42.0816 19.7362 42.3685 18.8739C42.9445 17.1364 42.9445 15.2594 42.3685 13.5219C42.0799 12.6604 41.607 11.8721 40.9826 11.212L40.9757 11.1959ZM37.5386 17.9222C37.3101 18.345 36.9728 18.699 36.5615 18.9478C36.127 19.2004 35.6478 19.3667 35.1502 19.4375C34.5985 19.5239 34.0409 19.5664 33.4825 19.5645H29.5696V12.8128H33.4825C34.0409 12.8109 34.5985 12.8534 35.1502 12.9398C35.6478 13.0106 36.127 13.1769 36.5615 13.4295C36.9733 13.6775 37.3108 14.0318 37.5386 14.4551C37.7809 15.0005 37.9062 15.5907 37.9062 16.1875C37.9062 16.7843 37.7809 17.3745 37.5386 17.9199V17.9222Z"></path>
<path fill="url(#paint1_linear_127_26796)" d="M110.13 0.00229645H114.023C116.596 0.00229645 119.063 1.02441 120.883 2.84378C122.702 4.66316 123.724 7.13075 123.724 9.70374V14.7346L109.805 0.79227C109.74 0.727531 109.697 0.645179 109.679 0.555606C109.661 0.466033 109.671 0.373257 109.706 0.288987C109.741 0.204718 109.8 0.132732 109.876 0.0821193C109.952 0.0315063 110.041 0.00453442 110.133 0.00460681L110.13 0.00229645Z"></path>
<path fill="url(#paint2_linear_127_26796)" d="M120.24 15.3652V19.1603C120.241 19.251 120.269 19.3393 120.319 19.4145C120.37 19.4896 120.442 19.5482 120.525 19.5829C120.609 19.6176 120.701 19.6269 120.79 19.6097C120.879 19.5925 120.961 19.5495 121.026 19.486L134.206 6.27129C134.27 6.20655 134.314 6.1242 134.331 6.03463C134.349 5.94505 134.34 5.85228 134.305 5.76801C134.269 5.68374 134.21 5.61175 134.134 5.56114C134.058 5.51053 133.969 5.48356 133.878 5.48363H130.12C127.499 5.48363 124.987 6.52448 123.134 8.37721C121.281 10.2299 120.24 12.7428 120.24 15.3629V15.3652Z"></path>
<path fill="url(#paint3_linear_127_26796)" d="M123.715 7.78887V4.89923C123.715 3.59987 124.231 2.35373 125.15 1.43495C126.068 0.516167 127.314 1.45329e-07 128.614 1.45329e-07H130.376C130.468 -7.22436e-05 130.557 0.0268997 130.633 0.0775126C130.709 0.128126 130.768 0.20011 130.803 0.284379C130.838 0.368648 130.848 0.461424 130.83 0.550997C130.812 0.64057 130.769 0.722925 130.704 0.787664L123.717 7.78656L123.715 7.78887Z"></path>
<path fill="url(#paint4_linear_127_26796)" d="M59.9651 19.2527C60.8802 18.8469 61.6704 18.2042 62.2542 17.3909C62.7949 16.5445 63.0648 15.5535 63.028 14.5498C63.0564 13.638 62.8788 12.7316 62.5083 11.8981C62.1804 11.2046 61.6742 10.6107 61.0415 10.1772C60.3515 9.72365 59.5793 9.40975 58.7686 9.25326C57.8027 9.05572 56.8186 8.96049 55.8327 8.96915H45.2258V31.5088H56.1492C57.1454 31.5101 58.1376 31.3828 59.1012 31.13C60.0166 30.8966 60.8827 30.5007 61.6582 29.9612C62.406 29.4343 63.0173 28.7367 63.4414 27.9262C63.933 26.8881 64.1572 25.7436 64.0939 24.5967C64.0306 23.4498 63.6816 22.337 63.0788 21.3593C62.3951 20.3599 61.3587 19.66 59.9697 19.2596L59.9651 19.2527ZM50.1851 12.8128H54.8256C55.2546 12.8117 55.6829 12.8488 56.1053 12.9236C56.4891 12.9876 56.8579 13.1214 57.1933 13.3186C57.5113 13.5102 57.7728 13.7828 57.9509 14.1086C58.1547 14.5084 58.2526 14.9537 58.235 15.4021C58.235 16.3492 57.9509 17.0329 57.3827 17.4533C56.7446 17.895 55.9798 18.1164 55.2045 18.0839H50.1851V12.8128ZM58.8517 26.1338C58.6644 26.4973 58.3878 26.8073 58.0479 27.0346C57.6928 27.2637 57.2979 27.4243 56.8837 27.5081C56.4281 27.6046 55.9635 27.6526 55.4978 27.6514H50.1851V21.4632H55.5833C56.6612 21.4632 57.5243 21.7104 58.1726 22.2047C58.8209 22.699 59.1474 23.5252 59.152 24.6832C59.1714 25.1847 59.0683 25.6833 58.8517 26.1361V26.1338ZM80.8371 27.8708V19.3797C80.8371 18.3911 80.6161 17.5965 80.1741 16.9959C79.7306 16.3942 79.1449 15.9117 78.4694 15.5915C77.7404 15.244 76.9607 15.0148 76.1596 14.9124C75.3329 14.7979 74.4994 14.74 73.6649 14.7392C72.7613 14.7404 71.86 14.8301 70.9739 15.0071C70.1244 15.1685 69.3083 15.4723 68.5601 15.9057C67.8508 16.3205 67.2463 16.8926 66.7931 17.578C66.3023 18.3657 66.0296 19.2697 66.0031 20.1974H70.4865C70.5697 19.3135 70.8646 18.6821 71.3712 18.3033C71.8771 17.9245 72.57 17.7351 73.4501 17.7351C73.8249 17.7341 74.1993 17.7603 74.5704 17.8136C74.8964 17.8565 75.2105 17.9641 75.4943 18.1301C75.7604 18.2903 75.9782 18.5193 76.1249 18.793C76.2972 19.1526 76.3766 19.5497 76.3559 19.9479C76.3789 20.1444 76.3534 20.3436 76.2817 20.528C76.2101 20.7124 76.0944 20.8764 75.9447 21.0059C75.5903 21.2753 75.1811 21.4638 74.7459 21.5579C74.1748 21.6959 73.5942 21.7909 73.0089 21.842C72.3552 21.9044 71.6923 21.9899 71.0201 22.0938C70.3448 22.1999 69.6755 22.3418 69.0151 22.5188C68.3846 22.6842 67.787 22.956 67.2481 23.3227C66.7198 23.6956 66.2869 24.1878 65.9846 24.7594C65.6337 25.4699 65.4654 26.2566 65.4949 27.0485C65.4751 27.7972 65.621 28.541 65.9222 29.2267C66.1918 29.8178 66.597 30.3369 67.1049 30.742C67.6293 31.1513 68.23 31.452 68.8719 31.6266C69.5816 31.8207 70.3145 31.9163 71.0501 31.9107C72.0559 31.9109 73.0561 31.7622 74.0183 31.4696C74.979 31.1796 75.8487 30.6465 76.543 29.922C76.5631 30.192 76.6001 30.4604 76.6539 30.7258C76.7061 30.9878 76.7748 31.2462 76.8595 31.4996H81.4053C81.154 31.0308 81.0038 30.5147 80.9641 29.9843C80.8773 29.2824 80.8348 28.5757 80.8371 27.8685V27.8708ZM76.3559 25.1867C76.3488 25.5244 76.3226 25.8614 76.2774 26.1961C76.2182 26.6356 76.0738 27.0593 75.8524 27.4435C75.592 27.8832 75.2219 28.2477 74.7783 28.5014C74.2932 28.797 73.6095 28.9426 72.7271 28.9426C72.3777 28.9429 72.029 28.9112 71.6854 28.8479C71.372 28.7943 71.0717 28.6814 70.8007 28.5152C70.5472 28.356 70.3401 28.133 70.2001 27.8685C70.04 27.5566 69.9605 27.2096 69.9691 26.8591C69.9588 26.4981 70.0381 26.1401 70.2001 25.8173C70.3425 25.5507 70.542 25.3188 70.7845 25.1382C71.0441 24.9513 71.3318 24.807 71.6368 24.7109C71.9624 24.6064 72.2941 24.5223 72.6301 24.4591C72.9881 24.3968 73.3462 24.3436 73.7042 24.302C74.0622 24.2605 74.3971 24.2073 74.7298 24.145C75.0425 24.0886 75.3512 24.0115 75.6537 23.914C75.9151 23.8316 76.157 23.6973 76.3651 23.519V25.1913L76.3559 25.1867ZM98.4475 18.7006C98.6341 19.6126 98.7239 20.5417 98.7154 21.4725V31.5111H94.225V22.2832C94.225 20.9373 94.0148 19.9364 93.5944 19.2804C93.174 18.6244 92.4272 18.2933 91.3539 18.2872C90.1343 18.2872 89.2504 18.6498 88.7021 19.3751C88.1539 20.1004 87.8806 21.2946 87.8821 22.9577V31.5042H83.3987V15.1804H87.6604V17.4602H87.7551C88.268 16.565 89.0382 15.8447 89.9656 15.3929C90.8292 14.9715 91.7766 14.7505 92.7375 14.7461C93.7437 14.7105 94.747 14.8746 95.6895 15.2289C96.4032 15.5148 97.0293 15.9831 97.505 16.5871C97.966 17.2152 98.2816 17.9379 98.429 18.7029L98.4475 18.7006ZM118.262 31.4996H111.745L106.084 25.4524L105.53 26.0067V31.4996H101.041V8.95991H105.525V21.1052L111.434 15.1781H116.333L109.131 22.3918L118.252 31.4973L118.262 31.4996ZM11.6404 19.3081H21.261V31.4927H18.0549L17.5421 28.9356C16.7693 29.9731 15.7423 30.7941 14.56 31.3194C13.515 31.7629 12.3921 31.9938 11.2569 31.9985C9.63512 32.0241 8.02523 31.7175 6.52632 31.0977C5.18054 30.5363 3.97188 29.6908 2.98299 28.6192C2.0053 27.5426 1.25291 26.2813 0.770136 24.9095C0.248287 23.4353 -0.0120212 21.8813 0.000950208 20.3175C-0.0101406 18.723 0.249961 17.1382 0.770136 15.6308C1.25373 14.2407 2.00557 12.9592 2.98299 11.8588C3.9682 10.7722 5.17808 9.9131 6.52863 9.34104C8.02456 8.70896 9.63542 8.39434 11.2592 8.41709C12.4179 8.41445 13.5701 8.58973 14.6755 8.93681C15.751 9.26999 16.7602 9.78824 17.6576 10.4683C18.5482 11.1457 19.2949 11.9938 19.8543 12.9629C20.4502 14.0091 20.8112 15.1725 20.9122 16.3723H16.0984C15.7904 15.108 15.213 14.161 14.366 13.5311C13.4602 12.8841 12.3674 12.5514 11.2546 12.5841C10.2532 12.5544 9.26036 12.7768 8.36729 13.2309C7.59446 13.6451 6.93408 14.2413 6.44317 14.9679C5.93864 15.727 5.57626 16.5715 5.3737 17.4602C5.14744 18.4012 5.03422 19.3659 5.03646 20.3337C5.03139 21.2682 5.14471 22.1995 5.3737 23.1055C5.58394 23.9688 5.94776 24.7872 6.44779 25.5217C6.94322 26.2401 7.60284 26.83 8.37191 27.2425C9.26451 27.6979 10.2577 27.9203 11.2592 27.8893C12.927 27.8893 14.2151 27.4735 15.1237 26.6419C16.0322 25.8104 16.5596 24.5977 16.7059 23.0039H11.6381V19.3081H11.6404ZM40.9757 11.1959C40.2841 10.4864 39.4473 9.93478 38.5226 9.57895C37.355 9.13917 36.1133 8.92973 34.8661 8.96222H24.5456V31.5019H29.5811V23.4174H34.873C36.1202 23.4499 37.362 23.2404 38.5295 22.8006C39.4547 22.4457 40.2917 21.894 40.9826 21.1837C41.6085 20.5248 42.0816 19.7362 42.3685 18.8739C42.9445 17.1364 42.9445 15.2594 42.3685 13.5219C42.0799 12.6604 41.607 11.8721 40.9826 11.212L40.9757 11.1959ZM37.5386 17.9222C37.3101 18.345 36.9728 18.699 36.5615 18.9478C36.127 19.2004 35.6478 19.3667 35.1502 19.4375C34.5985 19.5239 34.0409 19.5664 33.4825 19.5645H29.5696V12.8128H33.4825C34.0409 12.8109 34.5985 12.8534 35.1502 12.9398C35.6478 13.0106 36.127 13.1769 36.5615 13.4295C36.9733 13.6775 37.3108 14.0318 37.5386 14.4551C37.7809 15.0005 37.9062 15.5907 37.9062 16.1875C37.9062 16.7843 37.7809 17.3745 37.5386 17.9199V17.9222Z"></path>
<path fill="url(#paint5_linear_127_26796)" d="M110.13 0.00229645H114.023C116.596 0.00229645 119.063 1.02441 120.883 2.84378C122.702 4.66316 123.724 7.13075 123.724 9.70374V14.7346L109.805 0.79227C109.74 0.727531 109.697 0.645179 109.679 0.555606C109.661 0.466033 109.671 0.373257 109.706 0.288987C109.741 0.204718 109.8 0.132732 109.876 0.0821193C109.952 0.0315063 110.041 0.00453442 110.133 0.00460681L110.13 0.00229645Z"></path>
<path fill="url(#paint6_linear_127_26796)" d="M120.24 15.3652V19.1603C120.241 19.251 120.269 19.3393 120.319 19.4145C120.37 19.4896 120.442 19.5482 120.525 19.5829C120.609 19.6176 120.701 19.6269 120.79 19.6097C120.879 19.5925 120.961 19.5495 121.026 19.486L134.206 6.27129C134.27 6.20655 134.314 6.1242 134.331 6.03463C134.349 5.94505 134.34 5.85228 134.305 5.76801C134.269 5.68374 134.21 5.61175 134.134 5.56114C134.058 5.51053 133.969 5.48356 133.878 5.48363H130.12C127.499 5.48363 124.987 6.52448 123.134 8.37721C121.281 10.2299 120.24 12.7428 120.24 15.3629V15.3652Z"></path>
<path fill="url(#paint7_linear_127_26796)" d="M123.715 7.78887V4.89923C123.715 3.59987 124.231 2.35373 125.15 1.43495C126.068 0.516167 127.314 1.45329e-07 128.614 1.45329e-07H130.376C130.468 -7.22436e-05 130.557 0.0268997 130.633 0.0775126C130.709 0.128126 130.768 0.20011 130.803 0.284379C130.838 0.368648 130.848 0.461424 130.83 0.550997C130.812 0.64057 130.769 0.722925 130.704 0.787664L123.717 7.78656L123.715 7.78887Z"></path>
<defs>
<linearGradient gradientUnits="userSpaceOnUse" y2="20.2159" x2="118.255" y1="20.2159" x1="0.000950209" id="paint0_linear_127_26796">
<stop stop-color="#F7941D"></stop>
<stop stop-color="#EF4130" offset="1"></stop>
</linearGradient>
<linearGradient gradientUnits="userSpaceOnUse" y2="7.36384" x2="123.428" y1="7.36384" x1="109.047" id="paint1_linear_127_26796">
<stop stop-color="#8DC63F"></stop>
<stop stop-color="#3A9948" offset="1"></stop>
</linearGradient>
<linearGradient gradientUnits="userSpaceOnUse" y2="12.5541" x2="134.885" y1="12.5541" x1="120.24" id="paint2_linear_127_26796">
<stop stop-color="#8DC63F"></stop>
<stop stop-color="#3A9948" offset="1"></stop>
</linearGradient>
<linearGradient gradientUnits="userSpaceOnUse" y2="3.89443" x2="131.058" y1="3.89443" x1="123.655" id="paint3_linear_127_26796">
<stop stop-color="#EF4130"></stop>
<stop stop-color="#F15E29" offset="0.17"></stop>
<stop stop-color="#F47523" offset="0.34"></stop>
<stop stop-color="#F58620" offset="0.53"></stop>
<stop stop-color="#F6901D" offset="0.74"></stop>
<stop stop-color="#F7941D" offset="1"></stop>
</linearGradient>
<linearGradient gradientUnits="userSpaceOnUse" y2="20.2159" x2="118.255" y1="20.2159" x1="0.000950209" id="paint4_linear_127_26796">
<stop stop-color="#F7941D"></stop>
<stop stop-color="#EF4130" offset="1"></stop>
</linearGradient>
<linearGradient gradientUnits="userSpaceOnUse" y2="7.36384" x2="123.428" y1="7.36384" x1="109.047" id="paint5_linear_127_26796">
<stop stop-color="#8DC63F"></stop>
<stop stop-color="#3A9948" offset="1"></stop>
</linearGradient>
<linearGradient gradientUnits="userSpaceOnUse" y2="12.5541" x2="134.885" y1="12.5541" x1="120.24" id="paint6_linear_127_26796">
<stop stop-color="#8DC63F"></stop>
<stop stop-color="#3A9948" offset="1"></stop>
</linearGradient>
<linearGradient gradientUnits="userSpaceOnUse" y2="3.89443" x2="131.058" y1="3.89443" x1="123.655" id="paint7_linear_127_26796">
<stop stop-color="#EF4130"></stop>
<stop stop-color="#F15E29" offset="0.17"></stop>
<stop stop-color="#F47523" offset="0.34"></stop>
<stop stop-color="#F58620" offset="0.53"></stop>
<stop stop-color="#F6901D" offset="0.74"></stop>
<stop stop-color="#F7941D" offset="1"></stop>
</linearGradient>
</defs>
</svg>
