<svg width="128" height="31" viewBox="0 0 128 31" fill="none" xmlns="http://www.w3.org/2000/svg">
<g clip-path="url(#clip0_7_819)">
<g clip-path="url(#clip1_7_819)">
<path d="M125.324 14.8038L125.153 14.6326L125.307 14.4444C126.382 13.1696 126.937 11.5342 126.86 9.86635C126.681 6.07555 123.285 3.11479 119.12 3.11479H110.177C109.824 3.11479 109.473 3.18479 109.147 3.32079C108.82 3.45678 108.523 3.6561 108.274 3.90731C108.024 4.15851 107.826 4.45667 107.691 4.78469C107.557 5.11271 107.488 5.46414 107.489 5.81883V24.9012C107.488 25.2559 107.557 25.6073 107.691 25.9353C107.826 26.2633 108.024 26.5615 108.274 26.8127C108.523 27.0639 108.82 27.2632 109.147 27.3992C109.473 27.5352 109.824 27.6052 110.177 27.6052H119.095C121.264 27.616 123.36 26.8238 124.983 25.3804C125.763 24.7092 126.391 23.8788 126.825 22.9447C127.259 22.0106 127.489 20.9943 127.5 19.9637C127.484 18.0228 126.702 16.1672 125.324 14.8038ZM112.72 8.01801H119.487C119.79 7.97952 120.097 8.00612 120.389 8.09602C120.681 8.18593 120.95 8.33711 121.179 8.53947C121.408 8.74183 121.592 8.99076 121.717 9.2697C121.843 9.54865 121.908 9.85121 121.908 10.1573C121.908 10.4634 121.843 10.7659 121.717 11.0449C121.592 11.3238 121.408 11.5727 121.179 11.7751C120.95 11.9775 120.681 12.1286 120.389 12.2185C120.097 12.3085 119.79 12.335 119.487 12.2966H112.72V8.01801ZM119.547 22.702H112.72V17.2597H119.547C120.271 17.2597 120.966 17.5482 121.478 18.0617C121.99 18.5752 122.278 19.2717 122.278 19.998C122.278 20.7242 121.99 21.4207 121.478 21.9342C120.966 22.4477 120.271 22.7362 119.547 22.7362V22.702Z" fill="white"/>
<path d="M96.4557 12.887C94.3992 12.3222 91.9416 11.689 91.8477 10.0204C91.7795 8.84804 92.7011 7.85541 94.2029 7.66716C97.2237 7.29065 99.9459 9.07053 101.362 9.42993C101.676 9.4884 101.999 9.48054 102.31 9.40685C102.621 9.33316 102.913 9.19526 103.167 9.00197C103.422 8.80869 103.633 8.56428 103.788 8.28434C103.943 8.0044 104.038 7.6951 104.067 7.37622C104.298 5.545 102.489 4.54382 101.806 4.13308C99.9 3.04153 97.7278 2.50512 95.5341 2.58424C90.1581 2.58424 86.412 5.69903 86.412 10.1573C86.362 11.2272 86.5785 12.2927 87.0418 13.2578C87.5051 14.2228 88.2007 15.0571 89.0659 15.6852C92.4792 18.2523 99.1864 17.9614 99.1949 20.6312C99.1949 23.0272 94.7917 24.5075 89.9363 21.2815C89.5134 20.9401 88.9858 20.7557 88.4429 20.7595C87.8082 20.7662 87.2013 21.0214 86.7517 21.4706C86.302 21.9199 86.0454 22.5276 86.0365 23.1641C86.0334 23.5975 86.1485 24.0236 86.3693 24.3963L86.2755 24.4476L86.3693 24.4049C86.3693 24.4476 86.4291 24.4904 86.4547 24.5418C86.956 25.2539 87.5907 25.8613 88.3235 26.3302C90.4182 27.6026 92.8394 28.2304 95.2867 28.1358C97.7462 28.2505 100.172 27.5233 102.165 26.0735C103 25.387 103.665 24.5162 104.109 23.5291C104.554 22.5419 104.764 21.4652 104.725 20.383C104.759 15.7194 100.757 14.0679 96.4557 12.887Z" fill="white"/>
<path d="M80.6264 3.12335H78.9709C78.5046 3.12407 78.0479 3.25597 77.6527 3.50406C77.2575 3.75214 76.9396 4.10646 76.7352 4.52672L71.052 16.2756L65.3858 4.52672C65.1837 4.1065 64.8675 3.75195 64.4736 3.50372C64.0797 3.2555 63.6239 3.12367 63.1586 3.12335H61.5032C60.7918 3.12335 60.1094 3.40616 59.6055 3.90981C59.1016 4.41347 58.8174 5.09688 58.8152 5.81028V25.2007C58.8183 25.6709 58.9457 26.132 59.1843 26.5369C59.4229 26.9417 59.7642 27.276 60.1735 27.5055C60.5828 27.7351 61.0454 27.8518 61.5144 27.8438C61.9833 27.8357 62.4417 27.7032 62.8429 27.4597C63.2136 27.2533 63.5219 26.9504 63.7351 26.5829C63.9484 26.2154 64.0588 25.797 64.0546 25.3718V13.8368L68.7565 22.8903C68.9688 23.3174 69.2957 23.6768 69.7004 23.928C70.1052 24.1792 70.5717 24.3123 71.0477 24.3123C71.5237 24.3123 71.9902 24.1792 72.395 23.928C72.7997 23.6768 73.1266 23.3174 73.3389 22.8903L78.0664 13.8368V25.3804C78.064 25.8052 78.1752 26.2229 78.3883 26.5901C78.6014 26.9572 78.9086 27.2605 79.2781 27.4683C79.6794 27.7118 80.1378 27.8443 80.6067 27.8523C81.0756 27.8603 81.5382 27.7436 81.9475 27.5141C82.3568 27.2845 82.6982 26.9503 82.9368 26.5454C83.1754 26.1405 83.3027 25.6795 83.3058 25.2092V5.81028C83.3036 5.09836 83.0206 4.41623 82.5186 3.91282C82.0166 3.40941 81.3363 3.12561 80.6264 3.12335Z" fill="white"/>
<path d="M22.1816 28.2897L7.90534 11.2696C6.74577 9.87779 6.18436 8.08143 6.34435 6.27492C6.50434 4.46841 7.37266 2.7994 8.75867 1.63429C10.1466 0.471498 11.938 -0.0914804 13.7395 0.0689556C15.541 0.229392 17.2053 1.10013 18.3672 2.49L32.652 19.493C33.8116 20.8848 34.373 22.6811 34.213 24.4876C34.053 26.2941 33.1847 27.9632 31.7987 29.1283C30.4124 30.2957 28.6205 30.8632 26.817 30.706C25.0135 30.5487 23.3461 29.6796 22.1816 28.2897Z" fill="url(#paint0_radial_7_819)"/>
<path d="M37.6184 8.25752L34.0771 25.2605C33.7058 27.0357 32.6471 28.5905 31.1336 29.5837C29.6201 30.5768 27.7753 30.927 26.0045 30.5573C24.2359 30.1831 22.6874 29.1207 21.6988 27.6032C20.7102 26.0856 20.3621 24.2368 20.7309 22.4623L24.2723 5.45935C24.6456 3.68756 25.7037 2.13626 27.2151 1.14512C28.7265 0.153969 30.5679 -0.196275 32.3363 0.171064C34.1047 0.543463 35.6538 1.60378 36.6439 3.11959C37.6341 4.63541 37.9845 6.48305 37.6184 8.25752Z" fill="url(#paint1_radial_7_819)"/>
<path d="M39.9907 28.2897L25.7144 11.2696C24.5548 9.87779 23.9934 8.08143 24.1534 6.27492C24.3134 4.46842 25.1817 2.7994 26.5677 1.63429C27.9557 0.471498 29.747 -0.0914804 31.5485 0.0689556C33.35 0.229392 35.0144 1.10013 36.1763 2.49L50.4525 19.5529C51.6121 20.9447 52.1735 22.741 52.0135 24.5475C51.8535 26.354 50.9852 28.0231 49.5992 29.1882C48.2059 30.346 46.4112 30.9017 44.6095 30.7332C42.8078 30.5648 41.1465 29.6859 39.9907 28.2897Z" fill="url(#paint2_radial_7_819)"/>
<path d="M13.1192 23.3267C13.2333 24.7236 12.9171 26.1221 12.2132 27.333C11.5093 28.544 10.4517 29.5091 9.18332 30.0979C7.9149 30.6868 6.49679 30.871 5.12061 30.6257C3.74442 30.3804 2.4765 29.7174 1.48813 28.7263C0.499773 27.7352 -0.161378 26.4637 -0.405993 25.0837C-0.650608 23.7037 -0.466899 22.2816 0.120322 21.0097C0.707543 19.7377 1.66997 18.6772 2.87756 17.9714C4.08515 17.2655 5.4797 16.9484 6.87278 17.0629C8.48529 17.1954 9.99847 17.8978 11.1425 19.0451C12.2865 20.1923 12.9871 21.7097 13.1192 23.3267Z" fill="url(#paint3_radial_7_819)"/>
</g>
</g>
<defs>
<radialGradient id="paint0_radial_7_819" cx="0" cy="0" r="1" gradientUnits="userSpaceOnUse" gradientTransform="translate(23.3601 8.42735) scale(13.4997 13.5373)">
<stop stop-color="#9D0B0F"/>
<stop offset="0.07" stop-color="#AA0E12"/>
<stop offset="0.26" stop-color="#C7141A"/>
<stop offset="0.44" stop-color="#DB1820"/>
<stop offset="0.62" stop-color="#E81B23"/>
<stop offset="0.8" stop-color="#EC1C24"/>
</radialGradient>
<radialGradient id="paint1_radial_7_819" cx="0" cy="0" r="1" gradientUnits="userSpaceOnUse" gradientTransform="translate(36.6588 15.7557) scale(13.5445 13.5823)">
<stop offset="0.3" stop-color="#9D0B0F"/>
<stop offset="0.35" stop-color="#AA0E12"/>
<stop offset="0.48" stop-color="#C7141A"/>
<stop offset="0.6" stop-color="#DB1820"/>
<stop offset="0.73" stop-color="#E81B23"/>
<stop offset="0.85" stop-color="#EC1C24"/>
</radialGradient>
<radialGradient id="paint2_radial_7_819" cx="0" cy="0" r="1" gradientUnits="userSpaceOnUse" gradientTransform="translate(26.1765 1.30228) scale(28.896 28.9765)">
<stop offset="0.35" stop-color="#EC1C24"/>
<stop offset="1" stop-color="#F26F21"/>
</radialGradient>
<radialGradient id="paint3_radial_7_819" cx="0" cy="0" r="1" gradientUnits="userSpaceOnUse" gradientTransform="translate(3.69583 25.8313) scale(10.1397 10.168)">
<stop offset="0.3" stop-color="#EC1C24"/>
<stop offset="1" stop-color="#9D0B0F"/>
</radialGradient>
<clipPath id="clip0_7_819">
<rect width="128" height="30.72" fill="white"/>
</clipPath>
<clipPath id="clip1_7_819">
<rect width="128" height="30.72" fill="white" transform="translate(-0.5)"/>
</clipPath>
</defs>
</svg>
